HIERARCHY
ROOT joint_Root
{
	OFFSET 0.0 0.0 0.0
	CHANNELS 6 Xposition Yposition Zposition Zrotation Xrotation Yrotation 
	JOINT Hips
	{
		OFFSET 4.5925 91.4895 -427.239
		CHANNELS 6 Xposition Yposition Zposition Zrotation Xrotation Yrotation 
		JOINT Spine
		{
			OFFSET 15.7357 0.0 0.0
			CHANNELS 6 Xposition Yposition Zposition Zrotation Xrotation Yrotation 
			JOINT Chest
			{
				OFFSET 8.98455 -0.406207 0.0
				CHANNELS 6 Xposition Yposition Zposition Zrotation Xrotation Yrotation 
				JOINT Neck
				{
					OFFSET 16.3773 0.0 0.0
					CHANNELS 6 Xposition Yposition Zposition Zrotation Xrotation Yrotation 
					JOINT Head
					{
						OFFSET 6.45672 0.0 0.0
						CHANNELS 6 Xposition Yposition Zposition Zrotation Xrotation Yrotation 
						End Site
						{
							OFFSET 0.0 0.0 0.0
						}
					}
				}
				JOINT Shoulder_L
				{
					OFFSET 12.9942 -0.242716 4.98039
					CHANNELS 6 Xposition Yposition Zposition Zrotation Xrotation Yrotation 
					JOINT UpperArm_L
					{
						OFFSET 5.34809 0.0 0.0
						CHANNELS 6 Xposition Yposition Zposition Zrotation Xrotation Yrotation 
						JOINT LowerArm_L
						{
							OFFSET 24.3286 1.87007e-05 0.0
							CHANNELS 6 Xposition Yposition Zposition Zrotation Xrotation Yrotation 
							JOINT Hand_L
							{
								OFFSET 22.2916 0.0 0.0
								CHANNELS 6 Xposition Yposition Zposition Zrotation Xrotation Yrotation 
								End Site
								{
									OFFSET 0.0 0.0 0.0
								}
							}
						}
					}
				}
				JOINT Shoulder_R
				{
					OFFSET 12.9945 -0.242716 -4.98039
					CHANNELS 6 Xposition Yposition Zposition Zrotation Xrotation Yrotation 
					JOINT UpperArm_R
					{
						OFFSET -5.34813 0.0 0.0
						CHANNELS 6 Xposition Yposition Zposition Zrotation Xrotation Yrotation 
						JOINT LowerArm_R
						{
							OFFSET -24.3289 0.000322201 0.0
							CHANNELS 6 Xposition Yposition Zposition Zrotation Xrotation Yrotation 
							JOINT Hand_R
							{
								OFFSET -22.2915 -0.000108084 0.0
								CHANNELS 6 Xposition Yposition Zposition Zrotation Xrotation Yrotation 
								End Site
								{
									OFFSET 0.0 0.0 0.0
								}
							}
						}
					}
				}
			}
		}
		JOINT UpperLeg_L
		{
			OFFSET -2.19248 -6.46944 0.0
			CHANNELS 6 Xposition Yposition Zposition Zrotation Xrotation Yrotation 
			JOINT LowerLeg_L
			{
				OFFSET 39.0811 0.0 -1.23785e-05
				CHANNELS 6 Xposition Yposition Zposition Zrotation Xrotation Yrotation 
				JOINT Foot_L
				{
					OFFSET 40.9854 0.0 -1.26872e-05
					CHANNELS 6 Xposition Yposition Zposition Zrotation Xrotation Yrotation 
					JOINT Toes_L
					{
						OFFSET 11.7543 0.0 0.0
						CHANNELS 6 Xposition Yposition Zposition Zrotation Xrotation Yrotation 
						End Site
						{
							OFFSET 0.0 0.0 0.0
						}
					}
				}
			}
		}
		JOINT UpperLeg_R
		{
			OFFSET -2.19251 6.46944 0.0
			CHANNELS 6 Xposition Yposition Zposition Zrotation Xrotation Yrotation 
			JOINT LowerLeg_R
			{
				OFFSET -39.0811 -0.00228153 -0.0401928
				CHANNELS 6 Xposition Yposition Zposition Zrotation Xrotation Yrotation 
				JOINT Foot_R
				{
					OFFSET -40.9854 0.0 0.0
					CHANNELS 6 Xposition Yposition Zposition Zrotation Xrotation Yrotation 
					JOINT Toes_R
					{
						OFFSET -11.7543 0.0 0.0
						CHANNELS 6 Xposition Yposition Zposition Zrotation Xrotation Yrotation 
						End Site
						{
							OFFSET 0.0 0.0 0.0
						}
					}
				}
			}
		}
	}
}
MOTION
Frames:	4
Frame Time:	0.0333333
0.000000 0.000000 0.000000 0.000000 0.000000 -0.000000 -4.357940 91.954200 -0.764632 88.963500 6.910030 0.510490 15.735700 0.000005 -0.000001 95.482100 86.681700 -97.669500 8.984550 -0.406207 -0.000000 -1.140760 0.803809 -4.365170 16.377300 -0.000001 -0.000001 3.914610 -7.396650 5.323080 6.456720 -0.000001 -0.000000 -2.721710 -5.445990 -5.099640 12.994200 -0.242716 4.980390 -91.782100 4.644330 -68.980200 5.348090 -0.000007 -0.000001 -64.483000 22.280500 -8.206640 24.328600 0.000019 0.000005 7.819300 19.904700 -21.967000 22.291600 -0.000001 0.000005 13.973900 5.132710 4.353730 12.994500 -0.242716 -4.980390 94.261200 -10.365100 -67.504400 -5.348130 -0.000001 -0.000004 -42.177000 -68.423700 -89.506300 -24.328900 0.000322 -0.000009 -1.400480 -1.421710 -44.553600 -22.291500 -0.000108 -0.000004 19.215300 5.511950 -7.022750 -2.192480 -6.469440 -0.000000 -173.664000 -9.389160 -8.523560 39.081100 -0.000007 -0.000012 -0.132027 0.295179 24.098100 40.985400 -0.000006 -0.000013 -1.340830 11.732700 -65.192000 11.754300 -0.000000 0.000003 -0.000085 -0.000894 -16.612000 -2.192510 6.469440 -0.000001 -179.048000 29.710300 174.641000 -39.081100 -0.002282 -0.040193 -0.012932 0.038446 22.909700 -40.985400 0.000008 0.000006 8.512640 12.814300 -69.107700 -11.754300 -0.000006 -0.000006 -0.002769 -0.037955 -18.116600
0.000000 0.000000 0.000000 0.000000 0.000000 -0.000000 -4.234330 91.956100 -0.792639 88.916700 6.471480 0.528612 15.735700 0.000005 -0.000001 94.647100 86.644700 -96.693900 8.984550 -0.406207 -0.000000 -1.061740 0.701149 -4.085520 16.377300 -0.000001 -0.000001 3.676050 -7.211670 5.433710 6.456720 -0.000001 -0.000000 -2.712320 -5.056240 -5.282380 12.994200 -0.242716 4.980390 -91.823800 4.789090 -69.123200 5.348090 -0.000007 -0.000001 -64.592100 22.934300 -8.085710 24.328600 0.000019 0.000005 7.743610 19.770600 -21.900200 22.291600 -0.000001 0.000005 13.901000 5.135160 4.295810 12.994500 -0.242716 -4.980390 93.870100 -9.635550 -67.993600 -5.348130 -0.000001 -0.000004 -40.134200 -67.189000 -85.495600 -24.328900 0.000322 -0.000009 -1.675790 -1.454920 -49.022800 -22.291500 -0.000108 -0.000004 19.788100 5.505900 -6.773850 -2.192480 -6.469440 -0.000000 -173.715000 -9.342880 -8.474940 39.081100 -0.000007 -0.000012 -0.134023 0.298649 24.168900 40.985400 -0.000006 -0.000013 -1.347380 11.232600 -65.281100 11.754300 -0.000000 0.000003 -0.000089 -0.000932 -16.613400 -2.192510 6.469440 -0.000001 -179.089000 29.493700 174.597000 -39.081100 -0.002282 -0.040193 -0.010822 0.033379 22.955800 -40.985400 0.000008 0.000006 8.583750 13.038500 -69.102100 -11.754300 -0.000006 -0.000006 -0.002708 -0.037257 -18.088200
0.000000 0.000000 0.000000 0.000000 0.000000 -0.000000 -4.097570 91.952800 -0.814449 88.894400 5.924990 0.568396 15.735700 0.000005 -0.000001 94.070100 86.596400 -95.998200 8.984550 -0.406207 -0.000000 -0.962493 0.629850 -3.849180 16.377300 -0.000001 -0.000001 3.195890 -6.982310 5.379720 6.456720 -0.000001 -0.000000 -2.552540 -4.742120 -5.326290 12.994200 -0.242716 4.980390 -91.820600 4.812080 -69.248100 5.348090 -0.000007 -0.000001 -64.700500 24.208500 -8.172740 24.328600 0.000019 0.000005 7.518810 19.674100 -21.406700 22.291600 -0.000001 0.000005 13.690000 5.135280 4.292920 12.994500 -0.242716 -4.980390 93.332500 -8.468020 -68.425400 -5.348130 -0.000001 -0.000004 -38.566900 -65.070500 -81.087100 -24.328900 0.000322 -0.000009 -2.105330 -1.444560 -55.535900 -22.291500 -0.000108 -0.000004 20.247600 5.500320 -6.547600 -2.192480 -6.469440 -0.000000 -173.805000 -9.327500 -8.385900 39.081100 -0.000007 -0.000012 -0.133933 0.297194 24.259300 40.985400 -0.000006 -0.000013 -1.342460 10.689100 -65.401400 11.754300 -0.000000 0.000003 -0.000091 -0.000952 -16.614200 -2.192510 6.469440 -0.000001 -179.228000 29.296100 174.578000 -39.081100 -0.002282 -0.040193 -0.015138 0.043407 23.032100 -40.985400 0.000008 0.000006 8.403690 13.441000 -69.048200 -11.754300 -0.000006 -0.000006 -0.002633 -0.036383 -18.052600
0.000000 0.000000 0.000000 0.000000 0.000000 -0.000000 -3.936580 91.940800 -0.817496 88.871700 5.300920 0.651054 15.735700 0.000005 -0.000001 93.477100 86.530700 -95.296200 8.984550 -0.406207 -0.000000 -0.828822 0.557101 -3.632590 16.377300 -0.000001 -0.000001 2.677600 -6.692940 5.179850 6.456720 -0.000001 -0.000000 -2.441250 -4.418340 -5.229410 12.994200 -0.242716 4.980390 -91.797900 4.757660 -69.270800 5.348090 -0.000007 -0.000001 -64.871800 25.662400 -8.509600 24.328600 0.000019 0.000005 7.335320 20.011900 -20.614600 22.291600 -0.000001 0.000005 13.171200 5.128790 4.445950 12.994500 -0.242716 -4.980390 92.616900 -6.861240 -69.065500 -5.348130 -0.000001 -0.000004 -36.475000 -62.221100 -75.323000 -24.328900 0.000322 -0.000009 -2.669660 -1.319230 -63.698100 -22.291500 -0.000108 -0.000004 20.612200 5.492800 -6.246480 -2.192480 -6.469440 -0.000000 -173.897000 -9.483940 -8.252060 39.081100 -0.000007 -0.000012 -0.133097 0.293304 24.408000 40.985400 -0.000006 -0.000013 -1.299580 10.214300 -65.572300 11.754300 -0.000000 0.000003 -0.000095 -0.000985 -16.615400 -2.192510 6.469440 -0.000001 -179.439000 29.184600 174.602000 -39.081100 -0.002282 -0.040193 -0.023272 0.062143 23.163500 -40.985400 0.000008 0.000006 8.237350 14.013100 -69.041700 -11.754300 -0.000006 -0.000006 -0.002503 -0.034847 -17.990200
